# xmcd CD database file generated by Grip 3.0.0
# 
# Track frame offsets:
#       182
#       14715
#       29690
#       40644
#       50512
#       61431
#       72577
#       85988
#       100117
#       114935
#       119479
#       134373
#       149952
#       164449
#       179451
#       195158
#       210234
#       219423
#       231597
#       245910
#       256189
#       265169
# 
# Disc length: 3707 seconds
# 
# Revision: 5
# Processed by: cddbd v1.4PL0 Copyright (c) Steve Scherf et al.
# Submitted via: Grip 3.0.0
# 
DISCID=520e7916
DTITLE=Charles Trénet - Intégrale Charles Trénet 5.1 La Mer 1943-1947
DYEAR=1943
DGENRE=Chanson
TTITLE0=Que reste-t-il de nos amours?
TTITLE1=Souvenirs d'un chanteur à voix
TTITLE2=Je n'y suis pour personne
TTITLE3=L'héritage infernal
TTITLE4=Quand un facteur s'envole
TTITLE5=Débit de l'eau - débit de lait
TTITLE6=Verlaine (Yvon Jeanclaude)
TTITLE7=Maman Bouquet (Renée Lamy)
TTITLE8=Quand un facteur s'envole - Je n'y suis pour personne
TTITLE9=La chanson du vitrier
TTITLE10=La complainte des nazis (Pierre Dac)
TTITLE11=Bonsoir, jolie madame (Aimé Barelli)
TTITLE12=Si vous aimez
TTITLE13=Que reste-t-il de nos amours (Lucienne Boyer)
TTITLE14=Douce France (Roland Gerbeau)
TTITLE15=Ding! Dong!
TTITLE16=Liberté
TTITLE17=Imaginez
TTITLE18=Au clair de la lune
TTITLE19=Chacun son rêve
TTITLE20=Un air qui vient de chez nous
TTITLE21=La mer (Roland Gerbeau)
EXTD=
EXTT0=
EXTT1=
EXTT2=
EXTT3=
EXTT4=
EXTT5=
EXTT6=
EXTT7=
EXTT8=
EXTT9=
EXTT10=
EXTT11=
EXTT12=
EXTT13=
EXTT14=
EXTT15=
EXTT16=
EXTT17=
EXTT18=
EXTT19=
EXTT20=
EXTT21=
PLAYORDER=
